<svg xmlns="http://www.w3.org/2000/svg" style="width:0; height:0; visibility:hidden;">
    <symbol id="icon-angle-down" viewBox="0 0 30.724 30.725">
      <path d="M29.992 10.182l-14.63 14.63-14.63-14.63a2.498 2.498 0 0 1 0-3.535 2.498 2.498 0 0 1 3.535 0L15.361 17.74 26.457 6.646a2.5 2.5 0 1 1 3.535 3.536z"/>
    </symbol>
    <symbol id="icon-angle-up" viewBox="-290 387.2 30.7 18.9">
      <path d="M-289.3 401.8l14.6-14.6 14.6 14.6c1 1 1 2.6 0 3.5-1 1-2.6 1-3.5 0l-11.1-11.1-11.1 11.1c-1 1-2.6 1-3.5 0-.9-.9-.9-2.5 0-3.5z"/>
    </symbol>
    <symbol id="icon-close" viewBox="0 0 15.642 15.642">
      <path fill-rule="evenodd" d="M8.882 7.821l6.541-6.541A.75.75 0 1 0 14.362.219L7.821 6.76 1.28.22A.75.75 0 1 0 .219 1.281L6.76 7.822l-6.54 6.54a.75.75 0 0 0 1.06 1.061l6.541-6.541 6.541 6.541a.75.75 0 1 0 1.06-1.061l-6.54-6.541z"/>
    </symbol>
    <symbol id="icon-menu" viewBox="0 0 512 512">
      <path d="M491.318 235.318H20.682C9.26 235.318 0 244.577 0 256s9.26 20.682 20.682 20.682h470.636c11.423 0 20.682-9.259 20.682-20.682 0-11.422-9.259-20.682-20.682-20.682zM491.318 78.439H20.682C9.26 78.439 0 87.699 0 99.121c0 11.422 9.26 20.682 20.682 20.682h470.636c11.423 0 20.682-9.26 20.682-20.682 0-11.422-9.259-20.682-20.682-20.682zM491.318 392.197H20.682C9.26 392.197 0 401.456 0 412.879s9.26 20.682 20.682 20.682h470.636c11.423 0 20.682-9.259 20.682-20.682s-9.259-20.682-20.682-20.682z"/>
    </symbol></svg>